<?xml version="1.0" standalone="no"?>
<!DOCTYPE svg PUBLIC "-//W3C//DTD SVG 20010904//EN"
 "http://www.w3.org/TR/2001/REC-SVG-20010904/DTD/svg10.dtd">
<svg version="1.0" xmlns="http://www.w3.org/2000/svg"
 width="500.000000pt" height="500.000000pt" viewBox="0 0 500.000000 500.000000"
 preserveAspectRatio="xMidYMid meet">
<metadata>
Created by potrace 1.11, written by Peter Selinger 2001-2013
</metadata>
<g transform="translate(0.000000,500.000000) scale(0.100000,-0.100000)"
fill="#000000" stroke="none">
<path d="M3912 4459 c-767 -41 -1332 -299 -1936 -880 l-108 -105 -142 -12
c-77 -7 -175 -19 -216 -28 -101 -21 -264 -76 -342 -115 -169 -85 -444 -310
-468 -384 -15 -46 -5 -89 29 -117 14 -13 180 -128 368 -257 l340 -235 -8 -30
c-25 -86 5 -274 60 -386 31 -63 104 -175 121 -185 30 -18 2 -20 -57 -4 -85 24
-128 24 -231 -1 -232 -56 -401 -209 -545 -495 -107 -215 -235 -593 -223 -659
8 -40 42 -74 82 -82 61 -12 408 100 611 196 234 111 363 213 462 364 113 173
135 371 57 512 l-23 41 71 -44 c39 -24 107 -56 151 -70 68 -23 99 -27 208 -28
l128 -2 241 -354 c132 -195 248 -358 257 -364 68 -42 101 -28 217 89 253 257
393 574 411 931 l5 120 132 135 c213 218 304 330 445 544 193 295 305 568 376
921 41 200 56 364 62 645 4 253 4 266 -16 297 -13 21 -33 35 -58 42 -42 12
-244 12 -461 0z m-715 -1044 c64 -19 136 -82 170 -149 54 -105 27 -242 -62
-325 -59 -54 -107 -73 -187 -74 -159 -1 -284 124 -282 283 2 79 21 126 76 186
81 87 172 113 285 79z"/>
</g>
</svg>
